<?xml version="1.0" encoding="UTF-8"?>
<svg xmlns="http://www.w3.org/2000/svg" width="433.41" height="450.95" viewBox="263.29 26.03 433.41 450.95">
  <!-- Created using SVG Map Generator: dojo.amcharts.com/svg-map-generator -->
  <style>
    .land { fill: #ffffff; stroke: #000000; stroke-width: 0.5; }
  </style>
  <g id="polygons">
    <path d="M553.78,318.75L549.25,318.69L555.87,284.61L569.32,272.99L570.83,279.18L566.96,288.23L563.54,305.57Z" class="land" id="BZ" title="Belize"/>
    <path d="M612.41,407.77L614.21,415.89L624.6,431.91L619.36,434.21L618.22,459.09L615.12,449.75L607.49,449.28L609.4,441.68L596.65,430.64L590.45,431.82L584.14,426.04L582.23,417.11L584.58,405.16Z" class="land" id="CR" title="Costa Rica"/>
    <path d="M555.87,284.61L549.25,318.69L553.78,318.75L562.15,321.63L546.69,337.01L543.69,345.05L532.28,357.19L518.77,353.81L505.88,342.74L508.6,328.9L516.67,315.56L533.74,315.52L535.04,309.86L530,294.57L531.8,284.59Z" class="land" id="GT" title="Guatemala"/>
    <path d="M627.45,334.75L614.13,339.42L602.62,339.04L589.81,355.26L585.32,352.58L577.04,356.71L576.31,364.76L567.22,370.75L561.82,363.23L564.1,355.83L554.44,355.15L543.69,345.05L546.69,337.01L562.15,321.63L570.72,318.42L587.07,320.67L595.24,316.76L605.92,316.99L614.91,319.97L620.02,330.7Z" class="land" id="HN" title="Honduras"/>
    <path d="M569.32,272.99L555.87,284.61L531.8,284.59L530,294.57L535.04,309.86L533.74,315.52L516.67,315.56L508.6,328.9L505.88,342.74L499.86,332.15L487.79,315.86L475.86,309.39L467.07,317.27L452.27,323.01L436.74,317.4L425.19,307.31L413.52,304.02L399.83,295.49L389.16,282.71L378.44,280.23L369.63,275.58L365.32,266.7L353.71,258.22L348.51,239.29L357.27,226.43L359.25,219.93L355.71,211.25L356.78,200.1L351.53,190.22L347.95,178.34L338.52,165.64L336.09,155.66L325.94,146.49L331.48,136.56L326.3,123.33L320.89,119.17L323.4,109.95L316.48,108.2L309.68,90.38L309.13,60.52L312.51,54.07L294.29,43.74L289.34,54.45L286.09,69.83L291.71,84.48L292.15,91.93L297.01,100.44L295.11,110.6L298.46,115.76L299.28,125.24L303.4,129.68L301.81,145.41L304.29,162.65L302.97,172.57L309.54,173.26L313.82,185.28L304.39,195.6L302.25,183.12L286.59,161.76L290.33,150.6L290.25,138.14L277.54,129.45L269.65,120.96L265.79,112.14L275.45,109.8L282.07,100.41L276.16,84.2L270,77.93L272.12,60.34L269.86,47.63L270.94,31.54L302.18,28.53L299.32,31.95L338.61,51.64L374.08,51.56L377.04,44.06L398.97,44.22L410.77,64.04L411.23,81.01L422.35,90.68L432.68,79.82L439.88,76L449.79,77.58L455.65,89.54L456.16,102.08L462.05,115.33L460.17,124.05L461.45,134.14L481.03,144.02L481.37,148.93L470.06,169.53L459.77,200.15L458.37,217.96L461.17,235.27L467.04,248.36L467.29,257.62L471.35,268L479.56,268.95L486.13,278.24L500.06,273.72L508.97,273.05L521.77,268.68L523.19,273.02L540.12,257.47L545.09,247.62L551.04,228.35L558.98,223.71L582.24,217.74L598.57,221.15L596.13,230.54L585.55,244.27L584.36,253.39L576.25,273.44Z" class="land" id="MX" title="Mexico"/>
    <path d="M627.45,334.75L625.5,346.4L618.16,364.64L617,380.92L612.6,389.54L610.08,400.89L612.41,407.77L584.58,405.16L576.2,393.01L567.22,370.75L576.31,364.76L577.04,356.71L585.32,352.58L589.81,355.26L602.62,339.04L614.13,339.42Z" class="land" id="NI" title="Nicaragua"/>
    <path d="M618.22,459.09L619.36,434.21L624.6,431.91L628.06,441.74L639.62,446.28L656.69,438.52L664.62,431.53L684.11,438.05L692.83,448.48L694.21,459.76L691.96,465.69L680.77,468.62L678.02,459.28L682.54,453.51L670.33,442.37L665.58,442.21L660.88,449.62L652.18,455.15L655.34,466.39L650,473.48L644.48,474.47L642.51,465.6L636.23,465.41L633.76,457.89L621.23,454.56Z" class="land" id="PA" title="Panama"/>
    <path d="M543.69,345.05L554.44,355.15L564.1,355.83L561.82,363.23L552.04,367.08L532.28,357.19Z" class="land" id="SV" title="El Salvador"/>
  </g>
</svg>